<svg id="svg" xmlns="http://www.w3.org/2000/svg" xmlns:xlink="http://www.w3.org/1999/xlink" width="400" height="100.20833333333333" viewBox="0, 0, 400,100.20833333333333" version="1.1"><g id="svgg"><path id="path0" d="M80.500 0.804 C 80.500 0.879,79.169 1.081,77.542 1.252 C 75.915 1.424,74.546 1.610,74.500 1.667 C 74.416 1.771,69.903 2.342,69.208 2.336 C 69.002 2.335,68.833 2.394,68.833 2.469 C 68.833 2.543,67.557 2.743,65.996 2.912 C 63.386 3.196,63.153 3.248,63.076 3.569 C 63.030 3.760,63.013 25.254,63.038 51.333 L 63.083 98.750 72.458 98.793 L 81.833 98.836 81.846 96.293 C 81.853 94.894,81.879 85.087,81.903 74.500 C 81.927 63.913,81.959 55.010,81.973 54.717 C 82.007 54.037,82.563 53.438,83.508 53.063 C 83.916 52.900,84.340 52.679,84.449 52.572 C 84.559 52.464,84.990 52.275,85.407 52.151 C 85.825 52.028,86.167 51.871,86.167 51.802 C 86.167 51.733,86.579 51.556,87.083 51.409 C 87.587 51.263,88.000 51.092,88.000 51.030 C 88.000 50.968,88.469 50.769,89.042 50.590 C 89.615 50.410,90.121 50.210,90.168 50.145 C 90.214 50.081,90.889 49.865,91.667 49.667 C 92.444 49.468,93.121 49.240,93.170 49.161 C 93.220 49.081,93.970 48.923,94.838 48.810 C 95.706 48.697,96.454 48.554,96.500 48.494 C 96.711 48.214,100.500 48.858,100.500 49.173 C 100.500 49.261,100.596 49.333,100.713 49.333 C 101.036 49.333,102.157 50.489,102.270 50.938 C 102.325 51.155,102.433 51.333,102.510 51.333 C 103.007 51.333,103.045 52.775,103.094 73.167 C 103.122 84.487,103.149 94.894,103.155 96.293 L 103.167 98.836 112.542 98.793 L 121.917 98.750 121.917 72.014 C 121.917 50.773,121.874 45.263,121.708 45.208 C 121.594 45.170,121.500 44.933,121.500 44.682 C 121.500 44.016,120.982 41.098,120.846 41.000 C 120.783 40.954,120.592 40.298,120.421 39.542 C 120.251 38.785,120.057 38.167,119.989 38.167 C 119.922 38.167,119.732 37.792,119.567 37.333 C 119.402 36.875,119.203 36.500,119.125 36.500 C 119.047 36.500,118.873 36.238,118.739 35.917 C 118.605 35.596,118.422 35.333,118.331 35.333 C 118.241 35.333,118.167 35.226,118.167 35.095 C 118.167 34.965,117.979 34.710,117.750 34.530 C 117.521 34.350,117.333 34.122,117.333 34.024 C 117.333 33.925,117.166 33.756,116.961 33.646 C 116.757 33.537,116.452 33.271,116.283 33.057 C 116.114 32.842,115.877 32.667,115.756 32.667 C 115.635 32.667,115.492 32.554,115.440 32.417 C 115.387 32.279,115.243 32.167,115.120 32.167 C 114.997 32.167,114.742 32.023,114.554 31.847 C 114.212 31.529,112.874 31.000,112.411 31.000 C 112.277 31.000,112.167 30.934,112.167 30.854 C 112.167 30.106,99.635 30.100,99.361 30.848 C 99.331 30.932,99.106 31.000,98.861 31.000 C 98.271 31.000,95.606 31.526,95.500 31.664 C 95.454 31.723,94.819 31.901,94.089 32.060 C 93.359 32.218,92.721 32.412,92.672 32.490 C 92.623 32.569,92.109 32.727,91.529 32.841 C 90.950 32.955,90.386 33.137,90.277 33.246 C 90.168 33.355,89.536 33.578,88.873 33.740 C 88.209 33.903,87.667 34.091,87.667 34.158 C 87.667 34.225,87.179 34.419,86.583 34.590 C 85.987 34.760,85.500 34.952,85.500 35.016 C 85.500 35.081,85.125 35.268,84.667 35.433 C 84.208 35.598,83.833 35.793,83.833 35.866 C 83.833 35.940,83.485 36.000,83.060 36.000 C 82.218 36.000,81.848 35.710,81.839 35.042 C 81.836 34.835,81.758 34.667,81.667 34.667 C 81.557 34.667,81.500 28.977,81.500 17.930 C 81.500 8.725,81.454 1.075,81.399 0.930 C 81.296 0.663,80.500 0.551,80.500 0.804 M81.205 18.658 C 81.241 32.757,81.292 36.192,81.467 36.367 C 81.923 36.822,83.472 36.604,85.167 35.844 C 94.682 31.582,105.351 29.567,110.867 30.990 C 115.749 32.249,118.962 35.771,120.492 41.540 C 121.604 45.729,121.562 44.580,121.622 72.875 L 121.676 98.500 112.591 98.500 L 103.507 98.500 103.462 75.208 L 103.417 51.917 103.032 50.964 C 101.508 47.191,96.351 47.071,87.615 50.607 C 83.343 52.336,81.734 53.203,81.606 53.844 C 81.548 54.136,81.500 64.303,81.500 76.438 L 81.500 98.500 72.417 98.500 L 63.333 98.500 63.333 51.161 C 63.333 13.444,63.376 3.807,63.542 3.743 C 63.719 3.675,80.367 1.227,80.955 1.182 C 81.115 1.170,81.169 4.960,81.205 18.658 M232.833 11.583 C 232.833 11.721,232.908 11.833,233.000 11.833 C 233.092 11.833,233.167 11.721,233.167 11.583 C 233.167 11.446,233.092 11.333,233.000 11.333 C 232.908 11.333,232.833 11.446,232.833 11.583 M231.167 12.470 C 231.167 12.545,229.817 12.742,228.167 12.907 C 226.517 13.073,225.167 13.261,225.167 13.325 C 225.167 13.389,223.798 13.581,222.125 13.750 C 220.452 13.920,219.046 14.110,219.000 14.173 C 218.954 14.235,217.840 14.399,216.524 14.537 C 214.888 14.708,214.085 14.860,213.985 15.019 C 213.904 15.146,213.837 18.558,213.836 22.600 C 213.833 32.345,214.382 31.395,208.708 31.471 C 204.719 31.525,204.665 31.531,204.579 31.888 C 204.530 32.087,204.512 35.400,204.537 39.250 L 204.583 46.250 208.588 46.333 C 211.508 46.394,212.659 46.475,212.838 46.631 C 212.973 46.748,213.233 46.949,213.417 47.076 C 213.746 47.304,213.751 47.542,213.833 67.243 C 213.894 81.790,213.968 87.211,214.105 87.298 C 214.208 87.363,214.346 87.829,214.410 88.333 C 214.538 89.329,214.842 90.534,214.999 90.667 C 215.053 90.712,215.203 91.079,215.333 91.480 C 215.462 91.882,215.646 92.295,215.742 92.397 C 215.838 92.500,216.046 92.862,216.203 93.203 C 216.586 94.030,217.055 94.559,218.804 96.136 C 219.852 97.080,219.907 97.122,220.272 97.234 C 220.467 97.294,220.782 97.478,220.972 97.642 C 221.161 97.807,221.639 98.046,222.033 98.174 C 222.427 98.302,222.836 98.489,222.940 98.590 C 223.045 98.691,223.663 98.874,224.315 98.997 C 224.967 99.120,225.500 99.272,225.500 99.336 C 225.500 100.247,241.618 100.257,242.333 99.346 C 242.379 99.287,243.202 99.107,244.162 98.944 C 245.122 98.782,245.948 98.583,245.998 98.503 C 246.047 98.423,246.443 98.269,246.877 98.159 L 247.667 97.960 247.667 97.014 C 247.667 96.493,247.601 95.995,247.520 95.908 C 247.439 95.821,247.240 94.625,247.077 93.250 C 246.915 91.875,246.732 90.712,246.670 90.667 C 246.609 90.621,246.421 89.402,246.254 87.958 C 246.086 86.515,245.890 85.333,245.818 85.333 C 245.746 85.333,245.664 85.052,245.635 84.708 L 245.583 84.083 244.839 84.132 C 244.429 84.159,244.054 84.243,244.005 84.319 C 243.897 84.487,241.042 84.833,239.763 84.833 C 239.252 84.833,238.833 84.890,238.833 84.958 C 238.832 85.108,237.286 85.148,237.167 85.001 C 237.121 84.944,236.622 84.815,236.059 84.712 C 234.906 84.503,234.512 84.242,233.427 82.969 C 232.855 82.297,232.817 81.003,232.867 64.058 L 232.917 47.365 233.417 46.900 L 233.917 46.435 240.465 46.390 C 247.851 46.339,247.333 46.419,247.333 45.323 C 247.333 44.871,247.408 44.500,247.500 44.500 C 247.592 44.500,247.665 44.106,247.663 43.625 C 247.656 41.659,248.197 32.896,248.343 32.627 C 248.941 31.524,248.802 31.501,241.220 31.487 C 233.837 31.473,233.189 31.408,232.982 30.663 C 232.918 30.436,232.859 26.337,232.850 21.555 C 232.841 16.773,232.788 12.742,232.732 12.597 C 232.625 12.319,231.167 12.200,231.167 12.470 M232.366 22.097 C 232.415 31.043,232.428 31.369,232.740 31.597 C 233.008 31.793,234.332 31.833,240.421 31.833 C 244.467 31.833,247.811 31.867,247.853 31.908 C 247.937 31.992,247.475 39.544,247.147 43.450 L 246.935 45.983 239.973 46.033 C 233.551 46.079,232.988 46.106,232.714 46.381 C 232.313 46.783,232.247 81.166,232.645 82.535 C 233.470 85.373,236.879 86.003,244.599 84.744 L 245.280 84.633 245.654 87.025 C 245.860 88.340,246.132 90.017,246.258 90.750 C 246.490 92.090,247.165 96.644,247.220 97.232 C 247.315 98.247,239.151 99.729,233.500 99.723 C 223.872 99.712,217.872 96.626,215.495 90.461 C 214.219 87.153,214.168 86.167,214.167 64.907 C 214.167 49.478,214.131 46.681,213.930 46.407 C 213.708 46.103,213.421 46.080,209.262 46.027 L 204.830 45.971 204.873 38.944 L 204.917 31.917 208.333 31.880 C 210.213 31.860,212.176 31.841,212.696 31.838 C 214.274 31.830,214.167 32.452,214.167 23.333 C 214.167 15.881,214.186 15.350,214.458 15.266 C 214.619 15.217,215.650 15.062,216.750 14.922 C 217.850 14.781,219.838 14.512,221.167 14.323 C 222.496 14.134,225.346 13.730,227.500 13.424 C 229.654 13.118,231.619 12.860,231.866 12.851 L 232.315 12.833 232.366 22.097 M213.000 14.250 C 213.000 14.389,213.148 14.500,213.333 14.500 C 213.519 14.500,213.667 14.389,213.667 14.250 C 213.667 14.111,213.519 14.000,213.333 14.000 C 213.148 14.000,213.000 14.111,213.000 14.250 M27.750 30.263 C 24.045 30.528,22.000 30.739,22.000 30.859 C 22.000 30.936,21.804 31.000,21.566 31.000 C 20.940 31.000,18.099 31.531,18.000 31.666 C 17.954 31.729,17.392 31.919,16.750 32.088 C 16.108 32.258,15.546 32.440,15.500 32.494 C 15.454 32.548,14.985 32.725,14.458 32.888 C 13.931 33.051,13.500 33.243,13.500 33.315 C 13.500 33.387,13.181 33.546,12.792 33.668 C 12.402 33.790,12.008 33.971,11.917 34.070 C 11.825 34.169,11.471 34.379,11.130 34.537 C 10.789 34.694,10.377 34.940,10.213 35.083 C 9.224 35.951,8.747 36.333,8.655 36.333 C 8.483 36.333,7.432 37.407,7.093 37.929 C 6.919 38.197,6.639 38.515,6.472 38.634 C 6.304 38.754,6.167 38.957,6.167 39.085 C 6.167 39.212,6.064 39.377,5.939 39.450 C 5.814 39.523,5.587 39.827,5.435 40.125 C 5.283 40.423,5.100 40.667,5.029 40.667 C 4.957 40.667,4.764 41.042,4.600 41.500 C 4.435 41.958,4.245 42.333,4.177 42.333 C 4.109 42.333,3.911 42.765,3.736 43.292 C 3.561 43.819,3.361 44.292,3.291 44.344 C 3.221 44.396,3.037 45.033,2.882 45.761 C 2.727 46.488,2.550 47.121,2.490 47.167 C 2.338 47.281,1.831 50.904,1.832 51.861 C 1.833 52.336,1.752 52.666,1.625 52.708 C 1.320 52.810,1.320 77.387,1.625 77.692 C 1.740 77.806,1.833 78.228,1.833 78.628 C 1.833 79.563,2.339 83.057,2.490 83.167 C 2.554 83.212,2.741 83.906,2.907 84.708 C 3.073 85.510,3.259 86.167,3.320 86.167 C 3.381 86.167,3.571 86.579,3.743 87.083 C 3.914 87.587,4.107 88.000,4.171 88.000 C 4.235 88.000,4.422 88.356,4.587 88.792 C 4.751 89.227,4.986 89.643,5.109 89.717 C 5.232 89.790,5.333 89.945,5.333 90.060 C 5.333 90.176,5.465 90.416,5.626 90.594 C 5.787 90.771,6.064 91.142,6.241 91.417 C 6.417 91.692,6.735 92.053,6.948 92.220 C 7.160 92.387,7.333 92.631,7.333 92.762 C 7.333 92.893,7.400 93.000,7.481 93.000 C 7.562 93.000,8.028 93.375,8.516 93.833 C 9.005 94.292,9.444 94.667,9.494 94.667 C 9.543 94.667,9.846 94.892,10.167 95.167 C 10.487 95.441,10.832 95.666,10.933 95.666 C 11.033 95.666,11.285 95.813,11.492 95.993 C 11.698 96.172,12.122 96.403,12.434 96.506 C 12.745 96.608,13.000 96.747,13.000 96.813 C 13.000 96.880,13.394 97.074,13.875 97.245 C 14.356 97.416,14.787 97.606,14.833 97.667 C 14.879 97.729,15.440 97.909,16.081 98.068 C 16.721 98.227,17.283 98.419,17.331 98.495 C 17.378 98.571,18.204 98.763,19.167 98.923 C 20.129 99.083,20.954 99.265,21.000 99.328 C 21.658 100.236,41.665 100.250,42.333 99.343 C 42.379 99.281,43.448 99.094,44.708 98.927 C 45.969 98.760,47.000 98.558,47.000 98.478 C 47.000 98.399,47.179 98.333,47.399 98.333 C 47.618 98.333,47.839 98.225,47.890 98.093 C 48.021 97.752,47.649 94.667,47.477 94.667 C 47.398 94.667,47.335 94.498,47.336 94.292 C 47.342 93.585,46.770 89.083,46.664 89.000 C 46.606 88.954,46.421 87.735,46.254 86.292 C 46.086 84.848,45.886 83.667,45.808 83.667 C 45.730 83.667,45.667 83.521,45.667 83.343 C 45.667 83.165,45.600 82.978,45.518 82.928 C 45.339 82.817,41.951 83.348,41.833 83.506 C 41.268 84.262,27.051 84.269,26.500 83.514 C 26.454 83.451,26.044 83.260,25.588 83.089 C 24.732 82.767,24.583 82.675,23.893 82.042 C 23.669 81.835,23.419 81.667,23.338 81.667 C 23.257 81.667,23.035 81.469,22.845 81.228 C 22.655 80.986,22.500 80.854,22.500 80.933 C 22.500 81.013,22.341 80.780,22.147 80.414 C 21.952 80.049,21.728 79.725,21.647 79.695 C 21.567 79.664,21.380 79.214,21.231 78.695 C 21.082 78.175,20.902 77.675,20.832 77.583 C 20.114 76.645,20.121 53.109,20.839 52.861 C 20.928 52.831,21.000 52.702,21.000 52.575 C 21.000 52.174,21.523 50.787,21.766 50.543 C 21.895 50.415,22.000 50.240,22.000 50.155 C 22.000 49.480,24.831 47.424,26.385 46.970 C 26.769 46.858,27.123 46.711,27.170 46.643 C 27.302 46.457,29.282 46.169,30.444 46.168 C 31.103 46.167,31.507 46.092,31.569 45.958 C 31.647 45.792,31.686 45.792,31.764 45.958 C 31.833 46.106,32.379 46.167,33.633 46.167 C 35.986 46.167,40.057 46.502,40.188 46.707 C 40.245 46.797,40.639 46.843,41.063 46.809 C 41.487 46.775,41.833 46.789,41.833 46.840 C 41.833 46.949,44.374 47.333,45.093 47.333 C 45.783 47.333,45.927 46.903,46.272 43.833 C 46.431 42.412,46.612 41.212,46.673 41.167 C 46.735 41.121,46.920 39.883,47.085 38.417 C 47.250 36.950,47.438 35.712,47.502 35.667 C 47.663 35.552,48.047 32.378,47.924 32.179 C 47.870 32.091,47.471 31.967,47.038 31.903 C 46.605 31.839,46.212 31.733,46.167 31.667 C 46.077 31.538,42.546 30.997,41.806 30.999 C 41.561 30.999,41.336 30.930,41.306 30.846 C 41.172 30.474,30.944 30.035,27.750 30.263 M160.583 30.255 C 160.308 30.287,158.696 30.400,157.000 30.507 C 155.304 30.614,153.892 30.768,153.861 30.851 C 153.831 30.933,153.533 31.000,153.200 31.000 C 152.283 31.000,148.095 31.539,148.000 31.669 C 147.954 31.732,147.018 31.911,145.921 32.068 C 144.823 32.224,143.885 32.413,143.837 32.488 C 143.789 32.563,143.202 32.722,142.532 32.841 C 141.739 32.981,141.264 33.152,141.168 33.331 C 141.015 33.617,141.451 37.179,141.658 37.333 C 141.720 37.379,141.908 38.467,142.076 39.750 C 142.245 41.033,142.430 42.121,142.488 42.167 C 142.547 42.212,142.729 43.225,142.895 44.417 C 143.282 47.212,143.308 47.242,145.091 46.971 C 145.820 46.860,146.454 46.718,146.500 46.656 C 146.546 46.593,147.502 46.446,148.625 46.329 C 149.748 46.213,150.667 46.072,150.667 46.016 C 150.667 45.960,151.013 45.942,151.437 45.976 C 151.861 46.009,152.255 45.965,152.312 45.877 C 152.690 45.298,167.410 45.225,167.826 45.800 C 167.876 45.869,168.498 46.067,169.208 46.240 C 169.919 46.414,170.500 46.600,170.500 46.654 C 170.500 46.708,170.708 46.844,170.963 46.957 C 171.583 47.231,172.690 48.297,173.000 48.917 C 173.137 49.192,173.313 49.463,173.392 49.520 C 173.568 49.649,173.994 51.421,173.997 52.042 C 173.999 52.294,174.075 52.500,174.167 52.500 C 174.462 52.500,174.385 60.102,174.086 60.456 C 173.951 60.618,173.736 60.894,173.610 61.069 C 173.390 61.376,173.007 61.391,163.899 61.459 C 158.684 61.497,154.398 61.579,154.375 61.641 C 154.351 61.702,153.995 61.726,153.583 61.693 C 153.112 61.655,152.833 61.701,152.833 61.817 C 152.833 61.917,152.613 62.000,152.344 62.000 C 152.075 62.000,151.306 62.120,150.636 62.267 C 149.965 62.414,149.323 62.539,149.208 62.545 C 149.094 62.551,149.000 62.608,149.000 62.673 C 149.000 62.737,148.644 62.886,148.208 63.004 C 147.773 63.121,147.304 63.306,147.167 63.415 C 147.029 63.523,146.654 63.711,146.333 63.833 C 146.012 63.954,145.595 64.192,145.406 64.360 C 145.217 64.529,144.995 64.667,144.912 64.667 C 144.787 64.667,142.625 66.861,141.749 67.877 C 141.610 68.039,141.369 68.489,141.215 68.877 C 141.060 69.266,140.850 69.669,140.748 69.773 C 140.645 69.877,140.464 70.402,140.344 70.940 C 140.224 71.477,140.069 71.954,139.999 72.000 C 139.836 72.106,139.333 75.023,139.333 75.863 C 139.333 76.213,139.258 76.500,139.167 76.500 C 139.061 76.500,139.000 77.750,139.000 79.917 C 139.000 82.083,139.061 83.333,139.167 83.333 C 139.258 83.333,139.333 83.605,139.333 83.937 C 139.333 84.805,139.836 88.064,139.985 88.165 C 140.054 88.212,140.251 88.794,140.421 89.458 C 140.591 90.123,140.779 90.667,140.839 90.667 C 140.898 90.667,141.046 90.985,141.168 91.375 C 141.290 91.765,141.471 92.158,141.570 92.250 C 141.669 92.342,141.899 92.717,142.082 93.083 C 142.264 93.450,142.508 93.810,142.623 93.883 C 142.739 93.957,142.833 94.124,142.833 94.254 C 142.833 94.385,143.021 94.615,143.250 94.765 C 143.479 94.915,143.667 95.115,143.667 95.208 C 143.667 95.431,144.868 96.666,145.085 96.667 C 145.177 96.667,145.347 96.817,145.461 97.000 C 145.576 97.183,145.778 97.333,145.910 97.333 C 146.042 97.333,146.210 97.434,146.283 97.557 C 146.357 97.681,146.773 97.916,147.208 98.080 C 147.644 98.244,148.000 98.432,148.000 98.497 C 148.000 98.627,149.562 99.167,149.936 99.167 C 150.063 99.167,150.167 99.236,150.167 99.322 C 150.167 99.743,155.108 100.245,157.750 100.093 C 159.787 99.975,163.371 99.500,163.500 99.331 C 163.546 99.270,164.202 99.082,164.958 98.913 C 165.715 98.743,166.333 98.557,166.333 98.499 C 166.333 98.442,166.824 98.297,167.424 98.178 C 168.024 98.058,168.606 97.871,168.716 97.761 C 168.826 97.651,169.385 97.420,169.958 97.249 C 170.531 97.077,171.000 96.880,171.000 96.810 C 171.000 96.741,171.412 96.554,171.917 96.395 C 172.421 96.236,172.833 96.055,172.833 95.992 C 172.833 95.930,173.190 95.743,173.625 95.576 C 174.060 95.410,174.516 95.175,174.637 95.054 C 174.758 94.932,175.109 94.833,175.417 94.833 C 175.932 94.833,176.095 94.931,176.594 95.537 C 176.692 95.656,176.912 96.296,177.085 96.960 C 177.257 97.624,177.449 98.167,177.513 98.167 C 177.576 98.167,177.667 98.317,177.715 98.502 C 177.802 98.832,177.912 98.836,185.443 98.793 L 193.083 98.750 193.083 74.917 C 193.083 51.606,192.974 46.005,192.512 45.667 C 192.450 45.621,192.269 44.836,192.109 43.922 C 191.950 43.009,191.765 42.221,191.697 42.172 C 191.630 42.123,191.441 41.652,191.279 41.125 C 191.116 40.598,190.927 40.167,190.858 40.167 C 190.789 40.167,190.598 39.792,190.433 39.333 C 190.268 38.875,190.078 38.500,190.010 38.500 C 189.942 38.500,189.806 38.331,189.708 38.125 C 189.360 37.393,186.842 34.667,186.514 34.667 C 186.425 34.667,186.254 34.532,186.134 34.367 C 186.015 34.202,185.654 33.965,185.333 33.841 C 185.012 33.717,184.675 33.526,184.583 33.418 C 184.492 33.309,184.023 33.089,183.542 32.930 C 183.060 32.770,182.667 32.585,182.667 32.517 C 182.667 32.450,182.109 32.263,181.427 32.102 C 180.745 31.941,180.163 31.747,180.135 31.670 C 180.107 31.593,179.183 31.397,178.083 31.235 C 176.983 31.072,176.046 30.888,176.000 30.825 C 175.755 30.489,162.740 30.008,160.583 30.255 M36.167 30.673 C 40.392 30.937,47.500 32.190,47.500 32.670 C 47.500 32.970,47.085 35.733,45.676 44.808 C 45.287 47.315,45.683 47.082,42.650 46.592 C 27.749 44.184,21.217 46.256,20.181 53.720 C 19.936 55.488,19.936 74.845,20.181 76.613 C 20.804 81.101,23.367 83.581,28.240 84.411 C 31.837 85.023,39.235 84.575,44.769 83.410 C 45.442 83.268,45.251 82.400,46.747 92.417 C 46.966 93.883,47.235 95.670,47.345 96.386 C 47.589 97.986,47.701 97.883,45.167 98.391 C 27.217 101.988,12.081 98.804,6.197 90.195 C 2.490 84.770,1.842 81.075,1.837 65.333 C 1.834 53.720,1.985 51.416,3.017 47.284 C 6.082 35.023,17.134 29.484,36.167 30.673 M172.500 30.835 C 184.938 32.065,190.445 36.473,192.174 46.583 C 192.721 49.780,192.820 54.435,192.827 77.208 L 192.833 98.500 185.522 98.500 L 178.211 98.500 177.868 97.542 C 177.680 97.015,177.408 96.180,177.265 95.687 C 176.744 93.892,175.888 93.821,172.788 95.316 C 169.758 96.778,169.426 96.919,167.250 97.667 C 150.180 103.533,139.372 96.597,139.465 79.833 C 139.526 69.002,143.807 63.682,153.667 62.186 C 155.495 61.908,156.824 61.867,164.534 61.849 C 173.885 61.827,174.247 61.806,174.524 61.288 C 174.821 60.734,174.604 51.678,174.262 50.337 C 173.192 46.148,170.504 45.078,161.083 45.091 C 154.560 45.100,151.062 45.389,145.768 46.355 C 143.643 46.742,143.777 46.825,143.442 44.917 C 143.297 44.092,142.796 41.290,142.328 38.690 C 141.861 36.091,141.514 33.870,141.559 33.754 C 141.756 33.240,149.399 31.749,155.250 31.084 C 160.386 30.500,168.004 30.390,172.500 30.835 M324.333 30.917 C 324.333 31.054,324.408 31.167,324.500 31.167 C 324.592 31.167,324.667 31.054,324.667 30.917 C 324.667 30.779,324.592 30.667,324.500 30.667 C 324.408 30.667,324.333 30.779,324.333 30.917 M256.500 32.167 C 256.500 32.533,256.562 32.833,256.639 32.833 C 256.715 32.833,256.918 33.396,257.089 34.083 C 257.260 34.771,257.449 35.333,257.508 35.333 C 257.568 35.333,257.752 35.915,257.918 36.625 C 258.084 37.335,258.270 37.954,258.332 38.000 C 258.394 38.046,258.586 38.646,258.759 39.333 C 258.932 40.021,259.121 40.621,259.178 40.667 C 259.236 40.712,259.415 41.294,259.576 41.958 C 259.737 42.623,259.921 43.167,259.985 43.167 C 260.048 43.167,260.197 43.635,260.315 44.208 C 260.433 44.781,260.666 45.550,260.833 45.917 C 260.999 46.283,261.227 47.052,261.339 47.625 C 261.452 48.198,261.596 48.667,261.660 48.667 C 261.725 48.667,261.919 49.248,262.093 49.958 C 262.266 50.669,262.454 51.288,262.511 51.333 C 262.567 51.379,262.752 51.942,262.921 52.583 C 263.091 53.225,263.277 53.788,263.334 53.833 C 263.392 53.879,263.568 54.514,263.726 55.244 C 263.884 55.975,264.074 56.612,264.148 56.661 C 264.222 56.710,264.415 57.294,264.576 57.958 C 264.737 58.623,264.924 59.167,264.991 59.167 C 265.057 59.167,265.251 59.785,265.421 60.542 C 265.592 61.298,265.785 61.954,265.850 62.000 C 265.916 62.046,266.096 62.571,266.250 63.167 C 266.404 63.763,266.593 64.327,266.671 64.421 C 266.749 64.515,266.939 65.153,267.094 65.838 C 267.249 66.523,267.428 67.121,267.492 67.167 C 267.556 67.212,267.743 67.813,267.908 68.500 C 268.072 69.188,268.258 69.787,268.322 69.833 C 268.385 69.879,268.576 70.442,268.745 71.083 C 268.915 71.725,269.101 72.287,269.158 72.333 C 269.216 72.379,269.398 72.998,269.563 73.708 C 269.727 74.419,269.921 75.000,269.993 75.000 C 270.064 75.000,270.215 75.469,270.327 76.042 C 270.440 76.615,270.667 77.383,270.833 77.750 C 270.999 78.117,271.227 78.885,271.339 79.458 C 271.452 80.031,271.594 80.500,271.656 80.500 C 271.718 80.500,271.909 81.044,272.079 81.708 C 272.249 82.373,272.435 82.954,272.490 83.000 C 272.546 83.046,272.734 83.665,272.907 84.375 C 273.081 85.085,273.274 85.667,273.337 85.667 C 273.400 85.667,273.581 86.267,273.740 87.000 C 273.898 87.733,274.086 88.333,274.158 88.333 C 274.229 88.333,274.427 88.971,274.598 89.750 C 274.769 90.529,274.960 91.167,275.023 91.167 C 275.087 91.167,275.273 91.748,275.437 92.458 C 275.602 93.169,275.784 93.787,275.842 93.833 C 275.899 93.879,276.085 94.442,276.255 95.083 C 276.424 95.725,276.610 96.287,276.669 96.333 C 276.727 96.379,276.875 96.792,276.997 97.250 C 277.119 97.708,277.291 98.177,277.380 98.292 C 277.468 98.406,277.475 98.501,277.395 98.503 C 277.315 98.504,277.362 98.578,277.500 98.667 C 277.797 98.859,302.147 98.894,302.448 98.703 C 302.556 98.633,302.769 98.035,302.919 97.372 C 303.070 96.709,303.252 96.167,303.324 96.167 C 303.395 96.167,303.594 95.529,303.765 94.750 C 303.935 93.971,304.125 93.333,304.186 93.333 C 304.247 93.333,304.429 92.790,304.591 92.125 C 304.752 91.460,304.931 90.879,304.989 90.833 C 305.046 90.787,305.235 90.188,305.408 89.500 C 305.581 88.813,305.773 88.212,305.835 88.167 C 305.897 88.121,306.083 87.502,306.249 86.792 C 306.414 86.081,306.599 85.500,306.658 85.500 C 306.718 85.500,306.909 84.919,307.083 84.208 C 307.257 83.498,307.448 82.879,307.508 82.833 C 307.567 82.787,307.748 82.206,307.909 81.542 C 308.071 80.877,308.258 80.333,308.325 80.333 C 308.393 80.333,308.582 79.696,308.745 78.917 C 308.909 78.137,309.102 77.500,309.174 77.500 C 309.246 77.500,309.438 76.938,309.600 76.250 C 309.762 75.563,309.948 75.000,310.014 75.000 C 310.079 75.000,310.262 74.419,310.420 73.708 C 310.577 72.998,310.755 72.379,310.815 72.333 C 310.876 72.287,311.067 71.669,311.240 70.958 C 311.414 70.248,311.607 69.667,311.670 69.667 C 311.734 69.667,311.915 69.067,312.073 68.333 C 312.232 67.600,312.420 67.000,312.493 67.000 C 312.565 67.000,312.758 66.362,312.921 65.583 C 313.085 64.804,313.276 64.167,313.345 64.167 C 313.415 64.167,313.606 63.585,313.771 62.875 C 313.935 62.165,314.117 61.546,314.175 61.500 C 314.233 61.454,314.419 60.892,314.588 60.250 C 314.758 59.608,314.947 59.046,315.009 59.000 C 315.071 58.954,315.263 58.354,315.435 57.667 C 315.607 56.979,315.796 56.379,315.854 56.333 C 315.913 56.288,316.090 55.669,316.247 54.958 C 316.405 54.248,316.587 53.667,316.653 53.667 C 316.719 53.667,316.905 53.104,317.067 52.417 C 317.229 51.729,317.415 51.167,317.481 51.167 C 317.546 51.167,317.697 50.698,317.815 50.125 C 317.933 49.552,318.163 48.783,318.325 48.417 C 318.486 48.050,318.715 47.281,318.832 46.708 C 318.950 46.135,319.104 45.667,319.175 45.667 C 319.247 45.667,319.439 45.085,319.604 44.375 C 319.768 43.665,319.950 43.046,320.008 43.000 C 320.066 42.954,320.252 42.392,320.421 41.750 C 320.591 41.108,320.781 40.546,320.845 40.500 C 320.908 40.454,321.095 39.854,321.259 39.167 C 321.423 38.479,321.606 37.879,321.664 37.833 C 321.723 37.787,321.904 37.225,322.068 36.583 C 322.232 35.942,322.462 35.192,322.580 34.917 C 322.697 34.642,322.885 34.023,322.997 33.541 C 323.109 33.060,323.268 32.624,323.350 32.573 C 323.433 32.522,323.500 32.260,323.500 31.990 L 323.500 31.500 314.018 31.500 C 303.773 31.500,304.333 31.452,304.333 32.333 C 304.333 32.501,304.259 32.664,304.168 32.694 C 304.076 32.725,303.874 33.350,303.718 34.083 C 303.561 34.817,303.383 35.454,303.321 35.500 C 303.260 35.546,303.074 36.221,302.909 37.000 C 302.743 37.779,302.549 38.457,302.478 38.506 C 302.406 38.554,302.218 39.192,302.060 39.922 C 301.901 40.653,301.722 41.287,301.661 41.333 C 301.600 41.379,301.425 41.972,301.274 42.651 C 301.122 43.330,300.931 43.968,300.850 44.068 C 300.769 44.168,300.572 44.850,300.411 45.583 C 300.251 46.317,300.069 46.954,300.007 47.000 C 299.945 47.046,299.766 47.679,299.608 48.407 C 299.450 49.135,299.257 49.810,299.179 49.907 C 299.100 50.004,298.905 50.683,298.744 51.417 C 298.584 52.150,298.400 52.788,298.336 52.833 C 298.272 52.879,298.127 53.404,298.014 54.000 C 297.900 54.596,297.708 55.287,297.586 55.536 C 297.464 55.785,297.229 56.573,297.064 57.286 C 296.899 58.000,296.719 58.621,296.664 58.667 C 296.609 58.712,296.425 59.369,296.255 60.125 C 296.085 60.881,295.897 61.500,295.838 61.500 C 295.779 61.500,295.593 62.175,295.426 63.000 C 295.258 63.825,295.066 64.500,294.999 64.500 C 294.932 64.500,294.830 64.744,294.774 65.042 C 294.465 66.660,294.318 67.241,294.195 67.324 C 294.120 67.375,293.923 68.054,293.758 68.833 C 293.593 69.612,293.407 70.287,293.347 70.333 C 293.286 70.379,293.099 71.017,292.931 71.750 C 292.763 72.483,292.568 73.158,292.498 73.250 C 292.427 73.342,292.238 74.017,292.078 74.750 C 291.917 75.483,291.736 76.121,291.675 76.167 C 291.615 76.212,291.432 76.812,291.268 77.499 C 290.940 78.881,290.844 78.995,290.000 78.995 C 289.156 78.995,289.060 78.881,288.732 77.499 C 288.568 76.812,288.385 76.212,288.325 76.167 C 288.264 76.121,288.083 75.483,287.922 74.750 C 287.762 74.017,287.578 73.342,287.513 73.250 C 287.403 73.093,287.149 72.090,286.912 70.875 C 286.854 70.577,286.752 70.333,286.685 70.333 C 286.618 70.333,286.427 69.658,286.259 68.833 C 286.092 68.008,285.898 67.333,285.829 67.333 C 285.759 67.333,285.666 67.165,285.620 66.958 C 285.575 66.752,285.439 66.115,285.318 65.542 C 285.197 64.969,285.048 64.500,284.987 64.500 C 284.926 64.500,284.743 63.865,284.580 63.089 C 284.417 62.313,284.228 61.712,284.160 61.754 C 284.092 61.796,284.000 61.588,283.956 61.290 C 283.800 60.246,283.443 58.749,283.330 58.667 C 283.268 58.621,283.092 58.028,282.940 57.349 C 282.788 56.670,282.598 56.032,282.517 55.932 C 282.436 55.832,282.238 55.150,282.078 54.417 C 281.917 53.683,281.735 53.046,281.674 53.000 C 281.612 52.954,281.432 52.319,281.274 51.589 C 281.116 50.859,280.927 50.221,280.856 50.172 C 280.784 50.123,280.590 49.446,280.425 48.667 C 280.259 47.887,280.072 47.212,280.009 47.167 C 279.946 47.121,279.765 46.486,279.607 45.756 C 279.449 45.025,279.257 44.388,279.181 44.339 C 279.105 44.290,278.907 43.612,278.742 42.833 C 278.577 42.054,278.391 41.379,278.330 41.333 C 278.269 41.287,278.081 40.650,277.912 39.917 C 277.744 39.183,277.554 38.546,277.491 38.500 C 277.428 38.454,277.241 37.779,277.075 37.000 C 276.910 36.221,276.722 35.546,276.657 35.500 C 276.592 35.454,276.416 34.817,276.265 34.083 C 276.114 33.350,275.918 32.725,275.829 32.694 C 275.740 32.664,275.664 32.514,275.661 32.361 C 275.644 31.469,275.992 31.500,265.857 31.500 L 256.500 31.500 256.500 32.167 M334.601 31.764 C 334.165 32.900,334.568 86.144,335.014 86.306 C 335.098 86.336,335.167 86.529,335.167 86.735 C 335.167 87.384,335.699 90.246,335.836 90.333 C 335.908 90.379,336.092 90.848,336.245 91.375 C 336.398 91.902,336.579 92.333,336.646 92.333 C 336.713 92.333,336.902 92.708,337.067 93.167 C 337.232 93.625,337.431 94.000,337.509 94.000 C 337.587 94.000,337.782 94.281,337.943 94.625 C 338.103 94.969,338.369 95.348,338.534 95.468 C 338.699 95.588,338.833 95.759,338.833 95.848 C 338.833 96.060,339.940 97.167,340.152 97.167 C 340.241 97.167,340.412 97.303,340.532 97.470 C 340.652 97.636,341.011 97.917,341.330 98.095 C 341.649 98.272,342.002 98.501,342.113 98.604 C 342.224 98.707,342.657 98.892,343.074 99.015 C 343.492 99.139,343.833 99.290,343.833 99.352 C 343.833 100.191,358.365 100.186,359.000 99.347 C 359.046 99.287,359.908 99.100,360.917 98.932 C 361.925 98.764,362.787 98.572,362.833 98.506 C 362.879 98.439,363.629 98.249,364.500 98.083 C 365.371 97.917,366.121 97.730,366.167 97.667 C 366.212 97.604,366.831 97.417,367.542 97.251 C 368.252 97.086,368.833 96.901,368.833 96.842 C 368.833 96.782,369.396 96.593,370.083 96.422 C 370.771 96.251,371.333 96.060,371.333 95.998 C 371.333 95.937,371.802 95.747,372.375 95.576 C 372.948 95.406,373.455 95.211,373.503 95.144 C 373.550 95.077,373.957 94.898,374.406 94.745 C 374.855 94.593,375.336 94.354,375.475 94.216 C 375.659 94.031,375.968 93.984,376.629 94.039 C 377.603 94.119,377.736 94.233,378.006 95.208 C 378.102 95.552,378.240 95.833,378.313 95.833 C 378.386 95.833,378.586 96.321,378.756 96.917 C 378.927 97.513,379.114 98.000,379.173 98.000 C 379.232 98.000,379.365 98.188,379.470 98.417 L 379.660 98.833 386.316 98.833 C 389.977 98.833,393.091 98.788,393.236 98.732 C 393.476 98.640,393.500 95.519,393.500 65.066 L 393.500 31.500 384.086 31.500 L 374.673 31.500 374.628 53.799 C 374.578 78.727,374.689 76.638,373.387 77.250 C 373.037 77.414,372.712 77.604,372.667 77.672 C 372.621 77.739,372.210 77.920,371.754 78.074 C 371.298 78.229,370.846 78.420,370.750 78.500 C 370.654 78.580,370.202 78.771,369.746 78.926 C 369.290 79.080,368.879 79.257,368.833 79.320 C 368.732 79.457,367.055 80.000,366.731 80.000 C 366.604 80.000,366.500 80.067,366.500 80.149 C 366.500 80.231,365.956 80.429,365.292 80.591 C 364.627 80.752,364.046 80.938,364.000 81.004 C 363.839 81.235,360.692 81.667,359.172 81.667 C 356.976 81.667,355.908 81.325,354.875 80.292 C 353.418 78.834,353.505 80.472,353.502 54.613 C 353.500 35.219,353.466 31.942,353.262 31.738 C 352.883 31.359,334.747 31.384,334.601 31.764 M275.800 34.417 C 276.199 35.792,277.376 39.879,278.416 43.500 C 279.456 47.121,280.882 52.071,281.583 54.500 C 284.249 63.730,285.711 68.810,286.190 70.500 C 286.462 71.462,286.912 73.037,287.189 74.000 C 287.467 74.962,287.842 76.275,288.024 76.917 C 288.205 77.558,288.480 78.496,288.635 79.000 L 288.917 79.917 289.958 79.966 C 291.244 80.028,290.874 80.865,293.261 72.500 C 294.321 68.787,295.567 64.438,296.030 62.833 C 296.493 61.229,297.005 59.429,297.167 58.833 C 297.329 58.237,298.491 54.188,299.749 49.833 C 301.007 45.479,302.146 41.504,302.281 41.000 C 302.416 40.496,302.792 39.183,303.115 38.083 C 303.439 36.983,303.878 35.446,304.090 34.667 C 304.302 33.887,304.576 32.950,304.697 32.583 L 304.918 31.917 313.876 31.874 C 324.188 31.824,323.126 31.590,322.401 33.748 C 322.164 34.456,321.834 35.496,321.668 36.059 C 321.398 36.980,318.079 47.514,316.803 51.500 C 316.524 52.371,316.186 53.458,316.051 53.917 C 315.916 54.375,315.516 55.650,315.162 56.750 C 314.809 57.850,313.536 61.900,312.334 65.750 C 311.133 69.600,309.734 74.063,309.226 75.667 C 308.718 77.271,307.927 79.783,307.468 81.250 C 307.010 82.717,306.533 84.217,306.409 84.583 C 306.285 84.950,305.873 86.263,305.495 87.500 C 304.882 89.505,303.145 95.030,302.350 97.500 L 302.056 98.417 289.975 98.459 L 277.895 98.502 277.601 97.543 C 277.308 96.588,275.990 92.406,274.329 87.167 C 273.849 85.654,273.286 83.854,273.076 83.167 C 272.635 81.721,272.069 79.916,270.778 75.833 C 270.271 74.229,269.059 70.367,268.084 67.250 C 267.110 64.133,265.789 59.933,265.149 57.917 C 263.940 54.105,263.800 53.664,262.679 50.083 C 262.306 48.892,260.884 44.354,259.519 40.000 C 258.153 35.646,257.070 32.026,257.112 31.957 C 257.154 31.887,261.213 31.850,266.132 31.874 L 275.076 31.917 275.800 34.417 M353.000 55.083 C 353.092 80.733,353.015 79.045,354.169 80.502 C 356.061 82.892,360.977 82.831,367.767 80.333 C 369.619 79.653,374.700 77.366,374.873 77.136 C 374.895 77.107,374.951 66.921,374.998 54.500 L 375.083 31.917 384.083 31.917 L 393.083 31.917 393.126 65.210 L 393.169 98.504 386.577 98.460 L 379.986 98.417 379.268 96.667 C 377.940 93.428,378.061 93.591,376.950 93.533 C 376.085 93.488,375.726 93.591,373.533 94.507 C 362.943 98.933,350.282 100.930,344.667 99.061 C 340.212 97.578,336.960 93.460,335.734 87.750 C 334.910 83.911,334.940 84.986,334.878 57.540 L 334.820 31.830 343.868 31.874 L 352.917 31.917 353.000 55.083 M247.833 46.833 C 247.833 47.017,247.908 47.167,248.000 47.167 C 248.092 47.167,248.167 47.017,248.167 46.833 C 248.167 46.650,248.092 46.500,248.000 46.500 C 247.908 46.500,247.833 46.650,247.833 46.833 M161.583 73.830 C 158.089 74.372,156.982 75.524,156.733 78.880 C 156.304 84.638,158.881 86.797,165.439 86.172 C 169.319 85.803,174.310 84.233,174.558 83.304 C 174.789 82.442,174.678 74.412,174.430 74.074 C 174.175 73.724,163.563 73.523,161.583 73.830 M173.591 74.400 C 174.280 75.089,174.333 75.418,174.333 78.936 C 174.333 81.090,174.272 82.333,174.167 82.333 C 174.075 82.333,173.998 82.465,173.994 82.625 C 173.984 83.149,173.425 83.607,172.412 83.921 C 171.865 84.090,171.379 84.281,171.333 84.345 C 171.287 84.408,170.688 84.595,170.000 84.759 C 169.313 84.923,168.712 85.110,168.667 85.173 C 168.557 85.325,166.557 85.667,165.778 85.667 C 165.442 85.667,165.167 85.723,165.167 85.792 C 165.167 85.860,164.529 85.917,163.750 85.917 C 162.971 85.917,162.333 85.860,162.333 85.792 C 162.333 85.723,162.104 85.667,161.824 85.667 C 161.151 85.667,159.833 85.330,159.833 85.158 C 159.833 85.084,159.665 84.971,159.458 84.909 C 158.793 84.707,157.667 83.259,157.667 82.605 C 157.667 82.471,157.593 82.336,157.503 82.306 C 157.070 82.158,157.041 77.629,157.472 77.345 C 157.551 77.293,157.661 77.062,157.717 76.833 C 157.962 75.829,159.836 74.500,161.006 74.500 C 161.186 74.500,161.333 74.429,161.333 74.342 C 161.333 73.880,173.126 73.935,173.591 74.400 M46.000 81.917 C 46.000 82.054,46.075 82.167,46.167 82.167 C 46.258 82.167,46.333 82.054,46.333 81.917 C 46.333 81.779,46.258 81.667,46.167 81.667 C 46.075 81.667,46.000 81.779,46.000 81.917 M245.500 83.167 C 245.500 83.258,245.612 83.333,245.750 83.333 C 245.887 83.333,246.000 83.258,246.000 83.167 C 246.000 83.075,245.887 83.000,245.750 83.000 C 245.612 83.000,245.500 83.075,245.500 83.167 M48.500 98.833 C 48.500 98.925,48.612 99.000,48.750 99.000 C 48.887 99.000,49.000 98.925,49.000 98.833 C 49.000 98.742,48.887 98.667,48.750 98.667 C 48.612 98.667,48.500 98.742,48.500 98.833 M276.833 99.417 C 276.833 99.554,276.908 99.667,277.000 99.667 C 277.092 99.667,277.167 99.554,277.167 99.417 C 277.167 99.279,277.092 99.167,277.000 99.167 C 276.908 99.167,276.833 99.279,276.833 99.417 " stroke="none" fill="#f4bc6c" fill-rule="evenodd"></path><path id="path1" d="M72.250 2.431 C 67.575 3.109,63.656 3.699,63.542 3.743 C 63.376 3.807,63.333 13.444,63.333 51.161 L 63.333 98.500 72.417 98.500 L 81.500 98.500 81.500 76.438 C 81.500 64.303,81.548 54.136,81.606 53.844 C 81.734 53.203,83.343 52.336,87.615 50.607 C 96.351 47.071,101.508 47.191,103.032 50.964 L 103.417 51.917 103.462 75.208 L 103.507 98.500 112.591 98.500 L 121.676 98.500 121.622 72.875 C 121.562 44.580,121.604 45.729,120.492 41.540 C 118.962 35.771,115.749 32.249,110.867 30.990 C 105.351 29.567,94.682 31.582,85.167 35.844 C 83.472 36.604,81.923 36.822,81.467 36.367 C 81.292 36.192,81.241 32.757,81.205 18.658 C 81.169 4.960,81.115 1.170,80.955 1.182 C 80.842 1.191,76.925 1.753,72.250 2.431 M227.500 13.424 C 225.346 13.730,222.496 14.134,221.167 14.323 C 219.838 14.512,217.850 14.781,216.750 14.922 C 215.650 15.062,214.619 15.217,214.458 15.266 C 214.186 15.350,214.167 15.881,214.167 23.333 C 214.167 32.452,214.274 31.830,212.696 31.838 C 212.176 31.841,210.213 31.860,208.333 31.880 L 204.917 31.917 204.873 38.944 L 204.830 45.971 209.262 46.027 C 213.421 46.080,213.708 46.103,213.930 46.407 C 214.131 46.681,214.167 49.478,214.167 64.907 C 214.168 86.167,214.219 87.153,215.495 90.461 C 217.872 96.626,223.872 99.712,233.500 99.723 C 239.151 99.729,247.315 98.247,247.220 97.232 C 247.165 96.644,246.490 92.090,246.258 90.750 C 246.132 90.017,245.860 88.340,245.654 87.025 L 245.280 84.633 244.599 84.744 C 236.879 86.003,233.470 85.373,232.645 82.535 C 232.247 81.166,232.313 46.783,232.714 46.381 C 232.988 46.106,233.551 46.079,239.973 46.033 L 246.935 45.983 247.147 43.450 C 247.475 39.544,247.937 31.992,247.853 31.908 C 247.811 31.867,244.467 31.833,240.421 31.833 C 234.332 31.833,233.008 31.793,232.740 31.597 C 232.428 31.369,232.415 31.043,232.366 22.097 L 232.315 12.833 231.866 12.851 C 231.619 12.860,229.654 13.118,227.500 13.424 M27.417 30.680 C 12.401 31.523,4.092 38.092,2.351 50.500 C 1.489 56.636,1.627 76.367,2.565 81.199 C 4.005 88.620,7.809 93.746,14.043 96.667 C 21.320 100.076,33.415 100.746,45.167 98.391 C 47.701 97.883,47.589 97.986,47.345 96.386 C 47.235 95.670,46.966 93.883,46.747 92.417 C 45.251 82.400,45.442 83.268,44.769 83.410 C 39.235 84.575,31.837 85.023,28.240 84.411 C 23.367 83.581,20.804 81.101,20.181 76.613 C 19.936 74.845,19.936 55.488,20.181 53.720 C 21.217 46.256,27.749 44.184,42.650 46.592 C 45.683 47.082,45.287 47.315,45.676 44.808 C 47.085 35.733,47.500 32.970,47.500 32.670 C 47.500 32.463,47.003 32.308,45.208 31.956 C 38.262 30.595,34.172 30.301,27.417 30.680 M159.667 30.670 C 157.336 30.836,153.764 31.227,151.250 31.590 C 147.434 32.142,141.685 33.426,141.559 33.754 C 141.514 33.870,141.861 36.091,142.328 38.690 C 142.796 41.290,143.297 44.092,143.442 44.917 C 143.777 46.825,143.643 46.742,145.768 46.355 C 155.038 44.664,166.697 44.546,170.588 46.104 C 172.480 46.861,173.747 48.321,174.262 50.337 C 174.604 51.678,174.821 60.734,174.524 61.288 C 174.247 61.806,173.885 61.827,164.534 61.849 C 156.824 61.867,155.495 61.908,153.667 62.186 C 143.807 63.682,139.526 69.002,139.465 79.833 C 139.372 96.597,150.180 103.533,167.250 97.667 C 169.426 96.919,169.758 96.778,172.788 95.316 C 175.888 93.821,176.744 93.892,177.265 95.687 C 177.408 96.180,177.680 97.015,177.868 97.542 L 178.211 98.500 185.522 98.500 L 192.833 98.500 192.827 77.208 C 192.818 45.746,192.650 43.862,189.408 38.736 C 185.457 32.491,174.776 29.595,159.667 30.670 M257.112 31.957 C 257.070 32.026,258.153 35.646,259.519 40.000 C 260.884 44.354,262.306 48.892,262.679 50.083 C 263.800 53.664,263.940 54.105,265.149 57.917 C 265.789 59.933,267.110 64.133,268.084 67.250 C 269.059 70.367,270.271 74.229,270.778 75.833 C 272.069 79.916,272.635 81.721,273.076 83.167 C 273.286 83.854,273.849 85.654,274.329 87.167 C 275.990 92.406,277.308 96.588,277.601 97.543 L 277.895 98.502 289.975 98.459 L 302.056 98.417 302.350 97.500 C 303.145 95.030,304.882 89.505,305.495 87.500 C 305.873 86.263,306.285 84.950,306.409 84.583 C 306.533 84.217,307.010 82.717,307.468 81.250 C 307.927 79.783,308.718 77.271,309.226 75.667 C 309.734 74.063,311.133 69.600,312.334 65.750 C 313.536 61.900,314.809 57.850,315.162 56.750 C 315.516 55.650,315.916 54.375,316.051 53.917 C 316.186 53.458,316.524 52.371,316.803 51.500 C 318.079 47.514,321.398 36.980,321.668 36.059 C 321.834 35.496,322.164 34.456,322.401 33.748 C 323.126 31.590,324.188 31.824,313.876 31.874 L 304.918 31.917 304.697 32.583 C 304.576 32.950,304.302 33.887,304.090 34.667 C 303.878 35.446,303.439 36.983,303.115 38.083 C 302.792 39.183,302.416 40.496,302.281 41.000 C 302.146 41.504,301.007 45.479,299.749 49.833 C 298.491 54.188,297.329 58.237,297.167 58.833 C 297.005 59.429,296.493 61.229,296.030 62.833 C 295.567 64.438,294.321 68.787,293.261 72.500 C 290.874 80.865,291.244 80.028,289.958 79.966 L 288.917 79.917 288.635 79.000 C 288.480 78.496,288.205 77.558,288.024 76.917 C 287.842 76.275,287.467 74.962,287.189 74.000 C 286.912 73.037,286.462 71.462,286.190 70.500 C 285.711 68.810,284.249 63.730,281.583 54.500 C 280.882 52.071,279.456 47.121,278.416 43.500 C 277.376 39.879,276.199 35.792,275.800 34.417 L 275.076 31.917 266.132 31.874 C 261.213 31.850,257.154 31.887,257.112 31.957 M334.878 57.540 C 334.940 84.986,334.910 83.911,335.734 87.750 C 336.960 93.460,340.212 97.578,344.667 99.061 C 350.282 100.930,362.943 98.933,373.533 94.507 C 375.726 93.591,376.085 93.488,376.950 93.533 C 378.061 93.591,377.940 93.428,379.268 96.667 L 379.986 98.417 386.577 98.460 L 393.169 98.504 393.126 65.210 L 393.083 31.917 384.083 31.917 L 375.083 31.917 374.998 54.500 C 374.951 66.921,374.895 77.107,374.873 77.136 C 374.700 77.366,369.619 79.653,367.767 80.333 C 360.977 82.831,356.061 82.892,354.169 80.502 C 353.015 79.045,353.092 80.733,353.000 55.083 L 352.917 31.917 343.868 31.874 L 334.820 31.830 334.878 57.540 M174.430 74.074 C 174.678 74.412,174.789 82.442,174.558 83.304 C 174.310 84.233,169.319 85.803,165.439 86.172 C 158.881 86.797,156.304 84.638,156.733 78.880 C 156.982 75.524,158.089 74.372,161.583 73.830 C 163.563 73.523,174.175 73.724,174.430 74.074 " stroke="none" fill="#f4cc74" fill-rule="evenodd"></path></g></svg>